<svg xmlns="http://www.w3.org/2000/svg" viewBox="-710 -1196 1664 1237" width="416" height="309"><rect x="-710" y="-1196" width="1664" height="1237" fill="#ffffff"/><path fill="#141414" fill-rule="evenodd" d="M-269 -1C-272 -1 -274 -3 -275 -6C-275 -9 -271 -14 -267 -18C-261 -24 -252 -30 -241 -36L-234 -40L-220 -67C-192 -127 -171 -175 -161 -203C-159 -209 -157 -213 -157 -213C-157 -213 -154 -212 -150 -210C-141 -206 -131 -202 -121 -200C-111 -198 -83 -198 -72 -200C-48 -204 -27 -212 6 -226L20 -233L30 -228C35 -225 39 -223 39 -224C38 -224 37 -228 35 -232C34 -236 32 -240 32 -240C34 -242 48 -250 60 -258C80 -270 87 -275 92 -281C97 -287 104 -301 110 -322C115 -335 119 -345 125 -357C133 -375 135 -378 137 -386C139 -395 137 -402 131 -410C128 -413 128 -413 130 -415C130 -415 131 -417 131 -418C132 -419 134 -420 141 -424C149 -428 150 -428 156 -429C162 -429 163 -429 167 -427C172 -424 174 -420 173 -415L173 -412L181 -412C187 -412 189 -411 191 -410C198 -405 199 -400 196 -388L193 -381L196 -377C200 -373 202 -369 202 -367C202 -362 198 -352 195 -345C191 -337 178 -318 177 -318C175 -319 174 -318 168 -310C161 -300 160 -299 162 -297C163 -296 164 -296 166 -297C168 -299 173 -304 177 -309C178 -310 179 -311 179 -311C180 -310 185 -295 186 -290C187 -282 187 -267 186 -259C180 -230 157 -211 131 -213C120 -214 105 -220 96 -229C94 -231 92 -233 92 -232C92 -232 92 -229 93 -224C96 -210 101 -180 108 -135C115 -93 121 -58 124 -45L125 -39L136 -35C154 -27 165 -20 169 -13C172 -9 172 -4 170 -3C168 -1 140 0 71 0L2 0L0 -6C-1 -9 -4 -24 -7 -38C-10 -52 -13 -68 -14 -72C-16 -82 -23 -105 -26 -114L-29 -120L-35 -114C-38 -110 -43 -105 -46 -101C-53 -93 -94 -39 -109 -17L-121 0L-193 0C-233 0 -267 0 -269 -1ZM-105 -208C-122 -208 -137 -213 -150 -221C-152 -222 -154 -223 -155 -223C-156 -223 -158 -224 -162 -228C-178 -246 -186 -269 -186 -300C-186 -332 -177 -364 -160 -389C-152 -402 -137 -416 -127 -421C-125 -422 -124 -422 -122 -422C-119 -421 -110 -419 -98 -419C-90 -418 -87 -419 -87 -421C-87 -423 -90 -424 -106 -428C-117 -430 -122 -431 -123 -430C-125 -429 -133 -432 -148 -438C-196 -457 -233 -486 -258 -524C-272 -544 -281 -566 -288 -591C-291 -602 -295 -623 -294 -623C-294 -623 -291 -620 -287 -616C-284 -612 -278 -605 -274 -602C-270 -597 -268 -595 -268 -594C-269 -592 -267 -591 -263 -586C-257 -581 -256 -580 -255 -581C-253 -582 -253 -582 -256 -590C-258 -596 -259 -599 -261 -598C-261 -597 -266 -617 -268 -628C-270 -640 -270 -671 -268 -682C-259 -747 -223 -805 -165 -848C-159 -852 -155 -855 -154 -855C-154 -855 -155 -852 -156 -847C-164 -819 -166 -791 -161 -768C-160 -763 -160 -762 -161 -761C-163 -761 -162 -760 -161 -753C-160 -748 -158 -745 -158 -745C-155 -743 -154 -745 -152 -753C-151 -760 -151 -761 -152 -761C-153 -762 -153 -763 -152 -768C-146 -788 -134 -809 -111 -837C-105 -845 -94 -858 -89 -865C-65 -895 -53 -917 -48 -942C-46 -952 -46 -975 -48 -989C-49 -995 -49 -1000 -49 -1000C-49 -1000 -30 -992 -17 -986C17 -969 46 -945 69 -915C95 -882 111 -841 115 -801C116 -792 116 -767 115 -760C114 -757 114 -758 117 -762C123 -771 130 -784 134 -794C138 -803 147 -828 152 -846L154 -854L157 -851C158 -849 162 -844 166 -839C220 -769 231 -679 197 -590C195 -586 194 -583 195 -583C195 -583 201 -588 207 -593C214 -599 220 -604 220 -603C221 -602 212 -575 207 -565C185 -517 149 -476 109 -456C102 -453 102 -453 101 -454C100 -456 95 -460 89 -462C74 -467 57 -458 37 -433L34 -428L25 -427C16 -425 12 -423 12 -421C12 -419 15 -418 22 -418L28 -418L18 -397C12 -386 7 -375 5 -373C4 -371 3 -368 3 -368C4 -367 2 -365 -1 -361C-8 -353 -28 -332 -29 -333C-29 -333 -28 -342 -26 -354C-24 -365 -23 -374 -23 -374C-23 -375 -28 -374 -34 -373L-44 -370L-49 -347L-53 -324L-57 -323C-60 -323 -76 -319 -84 -318L-86 -318L-86 -329C-86 -342 -87 -346 -89 -347C-93 -349 -94 -343 -95 -322L-95 -310L-92 -309C-90 -308 -87 -308 -74 -310C-59 -313 -50 -316 -49 -317C-48 -318 -44 -320 -38 -322C-27 -326 -13 -331 -3 -335L3 -339L7 -351C10 -362 11 -364 12 -365C13 -365 14 -367 15 -369C17 -375 25 -394 31 -404C41 -423 53 -439 63 -446C69 -450 76 -452 84 -453C89 -453 90 -453 90 -452C90 -452 90 -451 91 -450C92 -449 93 -448 93 -446C93 -444 93 -443 94 -442C94 -442 96 -443 98 -443C103 -446 108 -446 112 -445C118 -442 121 -438 122 -429C123 -423 123 -423 122 -422C121 -421 120 -420 120 -419C120 -418 118 -416 116 -414C114 -411 113 -410 113 -409C113 -408 116 -407 118 -406C124 -404 127 -402 128 -398C130 -391 125 -378 113 -356C109 -349 108 -345 102 -327C93 -296 89 -289 75 -278C67 -273 39 -255 29 -249C25 -247 23 -246 23 -245C23 -243 19 -240 17 -241C16 -241 10 -239 4 -236C-38 -216 -75 -206 -105 -208ZM276 -292C266 -297 252 -306 239 -316C228 -325 225 -327 225 -331C225 -337 226 -337 237 -335C252 -332 295 -323 301 -320C303 -320 299 -309 295 -299C292 -292 289 -288 286 -288C285 -288 280 -290 276 -292ZM229 -383C227 -384 226 -386 226 -387C225 -393 248 -410 288 -432L293 -434L295 -432C299 -428 307 -407 307 -400C307 -397 307 -397 305 -396C301 -394 287 -390 268 -387C259 -386 247 -384 242 -383C232 -381 232 -381 229 -383ZM188 -433C185 -436 189 -454 197 -475C202 -486 211 -504 213 -507L214 -509L221 -506C233 -501 239 -495 240 -488C240 -483 239 -479 235 -472C230 -465 200 -434 196 -433C193 -431 190 -431 188 -433ZM-40 -528C-38 -528 -37 -534 -37 -540C-38 -547 -41 -555 -47 -564C-53 -573 -64 -585 -71 -589C-83 -597 -99 -600 -113 -599C-120 -599 -122 -599 -127 -596C-131 -594 -135 -591 -137 -590C-143 -586 -151 -578 -153 -573C-155 -569 -157 -560 -155 -558C-155 -558 -153 -557 -150 -557C-147 -556 -144 -557 -135 -560C-119 -565 -111 -566 -100 -563C-86 -560 -72 -553 -57 -538C-48 -530 -44 -527 -41 -527C-41 -528 -40 -528 -40 -528ZM53 -535C55 -536 60 -541 66 -548C73 -559 87 -570 98 -575C107 -580 112 -580 123 -578C136 -575 144 -575 146 -580C147 -584 146 -590 144 -594C141 -600 132 -607 122 -610C120 -611 116 -612 113 -612C107 -612 106 -612 99 -610C85 -604 73 -595 63 -582C52 -566 44 -544 47 -536C48 -533 49 -533 53 -535Z"/><path fill="#ffffff" fill-rule="evenodd" d="M-117 -199C-130 -201 -146 -207 -154 -212C-156 -214 -157 -214 -157 -218C-156 -223 -155 -224 -150 -221C-135 -212 -120 -208 -99 -208C-69 -208 -37 -217 4 -236C10 -239 16 -241 17 -241C19 -240 23 -243 23 -245C23 -246 25 -247 29 -249C39 -255 67 -273 75 -278C89 -289 93 -296 102 -327C108 -345 109 -349 113 -356C125 -378 130 -391 128 -398C127 -402 124 -404 118 -406C116 -407 113 -408 113 -409C113 -410 114 -411 116 -414C118 -416 120 -418 120 -419C120 -422 123 -423 125 -421C126 -420 127 -419 127 -419C128 -420 131 -418 131 -417C131 -416 131 -415 130 -415C128 -413 128 -413 131 -410C137 -402 139 -395 137 -386C135 -378 133 -375 125 -357C119 -345 115 -335 110 -322C104 -301 97 -287 92 -281C87 -275 80 -270 60 -258C48 -250 34 -242 32 -240C32 -240 34 -236 35 -232C37 -228 38 -224 39 -224C39 -223 35 -225 30 -228L20 -233L6 -226C-26 -212 -48 -204 -71 -200C-81 -198 -108 -198 -117 -199ZM162 -297C161 -298 161 -299 161 -300C163 -304 174 -318 175 -319C177 -319 180 -316 180 -314C180 -311 170 -300 166 -297C164 -296 163 -296 162 -297ZM-92 -309L-95 -310L-95 -322C-94 -343 -93 -349 -89 -347C-87 -346 -86 -342 -86 -329L-86 -318L-84 -318C-76 -319 -60 -323 -57 -323L-53 -324L-49 -347L-44 -370L-34 -373C-28 -374 -23 -375 -23 -374C-23 -374 -24 -365 -26 -354C-28 -342 -29 -333 -29 -333C-28 -332 -8 -353 -1 -361C2 -365 4 -367 3 -368C3 -368 4 -371 5 -373C7 -375 12 -386 18 -397L28 -418L22 -418C15 -418 12 -419 12 -421C12 -423 16 -425 25 -427L34 -428L37 -433C57 -458 74 -467 89 -462C94 -460 100 -456 101 -454C101 -453 99 -451 98 -451C97 -452 96 -451 95 -450C93 -449 90 -450 90 -452C90 -453 89 -453 84 -453C76 -452 69 -450 63 -446C53 -439 41 -423 31 -404C25 -394 17 -375 15 -369C14 -367 13 -365 12 -365C11 -364 10 -362 7 -351L3 -339L-3 -335C-13 -331 -27 -326 -38 -322C-44 -320 -48 -318 -49 -317C-50 -316 -59 -313 -74 -310C-87 -308 -90 -308 -92 -309ZM-100 -419C-101 -419 -106 -419 -111 -420C-123 -421 -125 -422 -125 -426C-125 -429 -124 -430 -123 -430C-122 -431 -117 -430 -106 -428C-90 -424 -87 -423 -87 -421C-87 -419 -92 -418 -100 -419ZM-45 -528C-47 -529 -52 -534 -57 -538C-72 -553 -86 -560 -100 -563C-111 -566 -119 -565 -135 -560C-144 -557 -147 -556 -150 -557C-153 -557 -155 -558 -155 -558C-157 -560 -155 -569 -153 -573C-151 -578 -143 -586 -137 -590C-135 -591 -131 -594 -127 -596C-122 -599 -120 -599 -113 -599C-99 -600 -83 -597 -71 -589C-64 -585 -53 -573 -47 -564C-41 -555 -38 -547 -37 -540C-37 -534 -38 -528 -40 -528C-40 -528 -41 -528 -41 -527C-42 -527 -44 -528 -45 -528ZM47 -536C44 -544 52 -566 63 -582C73 -595 85 -604 99 -610C106 -612 107 -612 113 -612C116 -612 120 -611 122 -610C132 -607 141 -600 144 -594C146 -590 147 -584 146 -580C144 -575 136 -575 123 -578C112 -580 107 -580 98 -575C87 -570 73 -559 66 -548C55 -535 49 -531 47 -536ZM-263 -586C-266 -589 -269 -592 -269 -593C-269 -594 -266 -596 -265 -595C-265 -595 -264 -596 -262 -597C-259 -599 -258 -598 -256 -590C-253 -582 -253 -582 -255 -581C-256 -580 -257 -581 -263 -586ZM-158 -745C-158 -745 -160 -748 -161 -753C-163 -760 -163 -761 -161 -762C-160 -763 -153 -763 -152 -761C-151 -761 -151 -758 -152 -753C-153 -749 -153 -746 -153 -746C-153 -745 -157 -744 -158 -745Z"/></svg>
