<svg xmlns="http://www.w3.org/2000/svg" viewBox="-710 -1196 1664 1237" width="416" height="309"><rect x="-710" y="-1196" width="1664" height="1237" fill="#ffffff"/><path fill="#141414" fill-rule="evenodd" d="M-206 -1C-228 -2 -235 -3 -235 -6C-235 -7 -234 -10 -233 -12C-229 -20 -217 -30 -198 -41C-194 -43 -193 -44 -189 -55C-175 -91 -156 -153 -150 -184L-148 -194L-152 -204C-155 -210 -163 -227 -171 -243C-179 -259 -187 -276 -189 -281L-193 -290L-201 -291C-240 -293 -257 -295 -280 -300C-317 -307 -359 -320 -393 -338C-421 -351 -436 -365 -443 -384C-450 -403 -451 -434 -445 -472C-440 -498 -435 -518 -423 -551C-410 -591 -400 -609 -386 -623C-368 -641 -342 -651 -318 -651C-297 -651 -278 -639 -268 -618C-256 -594 -263 -566 -283 -559C-286 -558 -293 -554 -298 -550C-304 -546 -310 -542 -313 -541C-319 -538 -328 -537 -335 -539C-337 -539 -339 -539 -339 -539C-339 -539 -336 -524 -332 -507C-328 -490 -324 -472 -323 -467C-322 -461 -321 -457 -321 -457C-321 -457 -318 -459 -315 -461C-279 -490 -234 -487 -200 -452C-196 -448 -190 -442 -188 -439L-184 -434L-176 -435C-171 -436 -162 -436 -155 -436C-146 -436 -144 -435 -143 -434C-142 -433 -140 -432 -137 -431C-135 -430 -126 -426 -119 -422C-105 -416 -87 -409 -80 -408C-75 -407 -72 -409 -73 -411C-73 -412 -78 -414 -84 -417C-99 -423 -121 -433 -129 -438C-133 -441 -137 -443 -138 -443C-143 -442 -171 -467 -185 -485C-211 -517 -229 -556 -238 -599C-245 -630 -246 -666 -242 -696C-237 -739 -216 -778 -180 -815C-170 -825 -147 -845 -146 -844C-146 -844 -147 -839 -148 -834C-154 -810 -153 -784 -146 -757C-144 -751 -144 -751 -146 -750C-147 -749 -147 -748 -145 -741C-143 -733 -140 -730 -138 -731C-137 -732 -136 -735 -135 -742C-134 -750 -134 -751 -135 -752C-136 -753 -136 -754 -134 -761C-128 -786 -120 -802 -94 -841C-70 -874 -62 -890 -55 -910C-50 -926 -48 -936 -48 -951C-48 -965 -49 -971 -53 -990C-54 -995 -55 -1000 -55 -1000C-54 -1001 -26 -990 -11 -981C50 -948 100 -886 116 -823C120 -809 121 -801 121 -780C121 -769 121 -762 122 -763C124 -764 134 -780 138 -788C146 -805 152 -822 157 -845L159 -860L167 -852C204 -815 226 -765 233 -705C234 -690 234 -656 232 -641C227 -601 218 -569 200 -535C185 -505 165 -479 142 -459C131 -450 126 -446 124 -447C124 -447 119 -445 114 -442C95 -430 74 -421 48 -413C33 -409 33 -409 33 -407C33 -404 37 -403 46 -405C69 -409 87 -416 108 -427C112 -430 119 -433 122 -434C125 -435 128 -437 129 -438C130 -440 131 -440 144 -440C151 -440 160 -440 164 -440L170 -439L177 -447C190 -463 205 -475 219 -481C244 -492 270 -488 298 -469C302 -466 306 -464 306 -464C306 -467 310 -485 314 -503C318 -516 321 -530 322 -534L323 -541L315 -541C303 -540 298 -541 287 -550C282 -553 274 -558 268 -561C263 -563 257 -567 256 -568C251 -574 248 -588 250 -601C253 -625 268 -642 293 -649C301 -651 319 -651 328 -649C346 -645 369 -629 380 -615C389 -604 392 -597 404 -564C419 -521 426 -488 426 -453C426 -419 422 -406 402 -386C386 -370 365 -355 335 -341C287 -317 246 -306 176 -296L168 -295L160 -276C149 -252 144 -238 141 -226C131 -191 132 -161 147 -120C154 -100 164 -74 171 -59L179 -44L188 -39C210 -28 222 -19 226 -12C228 -7 227 -4 224 -3C217 -1 83 0 65 -1L58 -2L44 -30C13 -90 3 -103 -12 -101C-17 -100 -26 -91 -33 -80C-40 -69 -49 -52 -63 -24L-75 -1L-97 -1C-124 0 -185 0 -206 -1ZM-45 -240C-30 -252 -18 -261 -17 -261C-17 -261 -5 -255 10 -248C36 -235 66 -221 70 -219C72 -219 72 -219 72 -220C72 -220 59 -238 45 -260C30 -282 18 -300 18 -300C17 -301 24 -309 32 -318C47 -335 59 -348 61 -352C64 -356 62 -356 47 -355L33 -354L17 -338C0 -320 -15 -304 -22 -296C-24 -293 -26 -291 -26 -291C-26 -292 -25 -295 -24 -299C-22 -306 -13 -351 -13 -353C-13 -354 -16 -354 -28 -353C-36 -353 -43 -353 -43 -353C-43 -353 -47 -335 -51 -314C-61 -268 -65 -252 -69 -234C-71 -226 -73 -220 -73 -219C-73 -219 -62 -227 -45 -240Z"/><path fill="#ffffff" fill-rule="evenodd" d="M-73 -219C-73 -220 -71 -226 -69 -234C-65 -252 -61 -268 -51 -314C-47 -335 -43 -353 -43 -353C-43 -353 -36 -353 -28 -353C-16 -354 -13 -354 -13 -353C-13 -351 -22 -306 -24 -299C-25 -295 -26 -292 -26 -291C-26 -291 -24 -293 -22 -296C-15 -304 0 -320 17 -338L33 -354L47 -355C62 -356 64 -356 61 -352C59 -348 47 -335 32 -318C24 -309 17 -301 18 -300C18 -300 30 -282 45 -260C59 -238 72 -220 72 -220C72 -219 72 -219 70 -219C66 -221 36 -235 10 -248C-5 -255 -17 -261 -17 -261C-18 -261 -30 -252 -45 -240C-62 -227 -73 -219 -73 -219ZM34 -405C32 -406 32 -408 34 -409C34 -409 41 -411 48 -413C74 -421 95 -430 114 -442C121 -447 123 -447 125 -447C126 -446 126 -445 126 -444C126 -443 127 -442 128 -441C130 -439 129 -437 122 -434C119 -433 111 -429 106 -426C88 -416 71 -410 54 -406C41 -404 36 -403 34 -405ZM-87 -409C-98 -413 -104 -415 -120 -423C-129 -427 -138 -431 -140 -432C-143 -433 -144 -435 -141 -437C-140 -437 -140 -438 -140 -440C-140 -441 -140 -442 -139 -442C-137 -443 -136 -442 -130 -439C-122 -434 -99 -423 -84 -417C-78 -414 -73 -412 -73 -411C-72 -409 -75 -407 -78 -407C-79 -407 -83 -408 -87 -409ZM-141 -732C-142 -733 -143 -736 -145 -741C-147 -749 -147 -751 -143 -751C-142 -751 -140 -751 -139 -752C-137 -753 -137 -753 -135 -752C-134 -751 -134 -750 -135 -742C-136 -731 -137 -730 -141 -732Z"/><path fill="#ffffff" fill-rule="evenodd" d="M-79 -472C-122 -479 -152 -519 -155 -574L-156 -586L-153 -585C-103 -574 -70 -551 -54 -517C-49 -507 -47 -498 -48 -489C-48 -479 -51 -473 -54 -473C-59 -472 -73 -471 -79 -472ZM51 -479L48 -482L48 -490C48 -517 70 -549 104 -574C119 -584 148 -600 151 -600C155 -600 156 -596 155 -584C153 -553 141 -524 120 -504C104 -487 85 -478 62 -477L54 -476L51 -479Z"/></svg>
